<svg id="Layer_1" enable-background="new 0 0 24 24" height="512" viewBox="0 0 24 24" width="512" xmlns="http://www.w3.org/2000/svg" xmlns:xlink="http://www.w3.org/1999/xlink"><linearGradient id="SVGID_1_" gradientUnits="userSpaceOnUse" x1="1.364" x2="22.636" y1="11.988" y2="11.988"><stop offset="0" stop-color="#ee0979"/><stop offset="1" stop-color="#ff6a00"/></linearGradient><path d="m15.3 8.8-4.3 4.3-1.8-1.8c-.4-.4-1-.4-1.4 0s-.4 1 0 1.4l2.5 2.5c.2.2.4.3.7.3s.5-.1.7-.3l5-5c.4-.4.4-1 0-1.4s-1-.4-1.4 0zm6.9-.7-2.4-1.7-.9-2.8c-.2-.4-.6-.7-1-.7h-2.9l-2.3-1.7c-.4-.3-.8-.3-1.2 0l-2.4 1.7h-2.9c-.5 0-.9.3-1 .7l-.9 2.8-2.4 1.7c-.4.2-.5.7-.4 1.1l.9 2.8-1 2.8c-.1.4 0 .8.4 1.1l2.4 1.7.9 2.8c.2.4.6.7 1 .7h2.9l2.4 1.7c.2.1.4.2.6.2s.4-.1.5-.2l2.4-1.7h2.9c.5 0 .9-.3 1-.7l.9-2.8 2.4-1.7c.4-.2.5-.7.4-1.1l-.9-2.8 1-2.8c.1-.4 0-.8-.4-1.1zm-2.7 4.2.8 2.4-2 1.5c-.2.1-.3.3-.4.5l-.8 2.4h-2.5c-.2 0-.4.1-.6.2l-2 1.5-2-1.5c-.2-.1-.4-.2-.6-.2h-2.5l-.8-2.4c-.1-.2-.2-.4-.4-.5l-2-1.5.8-2.4c.1-.2.1-.4 0-.6l-.8-2.4 2-1.5c.2-.1.3-.3.4-.5l.8-2.4h2.5c.2 0 .4-.1.6-.2l2-1.5 2 1.5c.2.1.4.2.6.2h2.5l.8 2.4c.1.2.2.4.4.5l2 1.5-.8 2.4c-.1.2-.1.4 0 .6z" fill="url(#SVGID_1_)"/></svg>