<?xml version="1.0" encoding="UTF-8"?>
<svg xmlns="http://www.w3.org/2000/svg" xmlns:xlink="http://www.w3.org/1999/xlink" version="1.1" id="Capa_1" x="0px" y="0px" viewBox="0 0 512 512" style="enable-background:new 0 0 512 512;" xml:space="preserve" width="512" height="512">
<g>
	<path style="fill:none;stroke:#000000;stroke-width:15;stroke-linecap:round;stroke-linejoin:round;stroke-miterlimit:10;" d="&#10;&#9;&#9;M132.559,414.764L43.263,504.06c0.272,0.272,0.647,0.439,1.061,0.439h423.351c0.414,0,0.79-0.168,1.061-0.439l-212.03-212.03&#10;&#9;&#9;c-0.39-0.39-1.023-0.39-1.413,0l-98.016,98.016"/>
	
		<line style="fill:none;stroke:#000000;stroke-width:15;stroke-linecap:round;stroke-linejoin:round;stroke-miterlimit:10;" x1="83.431" y1="111.044" x2="83.431" y2="152.46"/>
	
		<line style="fill:none;stroke:#000000;stroke-width:15;stroke-linecap:round;stroke-linejoin:round;stroke-miterlimit:10;" x1="65.497" y1="121.398" x2="101.365" y2="142.106"/>
	
		<line style="fill:none;stroke:#000000;stroke-width:15;stroke-linecap:round;stroke-linejoin:round;stroke-miterlimit:10;" x1="65.497" y1="142.106" x2="101.365" y2="121.398"/>
	
		<line style="fill:none;stroke:#000000;stroke-width:15;stroke-linecap:round;stroke-linejoin:round;stroke-miterlimit:10;" x1="152.459" y1="111.044" x2="152.459" y2="152.46"/>
	
		<line style="fill:none;stroke:#000000;stroke-width:15;stroke-linecap:round;stroke-linejoin:round;stroke-miterlimit:10;" x1="134.525" y1="121.398" x2="170.393" y2="142.106"/>
	
		<line style="fill:none;stroke:#000000;stroke-width:15;stroke-linecap:round;stroke-linejoin:round;stroke-miterlimit:10;" x1="134.525" y1="142.106" x2="170.393" y2="121.398"/>
	
		<line style="fill:none;stroke:#000000;stroke-width:15;stroke-linecap:round;stroke-linejoin:round;stroke-miterlimit:10;" x1="428.568" y1="111.044" x2="428.568" y2="152.46"/>
	
		<line style="fill:none;stroke:#000000;stroke-width:15;stroke-linecap:round;stroke-linejoin:round;stroke-miterlimit:10;" x1="446.502" y1="121.398" x2="410.635" y2="142.106"/>
	
		<line style="fill:none;stroke:#000000;stroke-width:15;stroke-linecap:round;stroke-linejoin:round;stroke-miterlimit:10;" x1="446.502" y1="142.106" x2="410.635" y2="121.398"/>
	
		<line style="fill:none;stroke:#000000;stroke-width:15;stroke-linecap:round;stroke-linejoin:round;stroke-miterlimit:10;" x1="359.541" y1="111.044" x2="359.541" y2="152.46"/>
	
		<line style="fill:none;stroke:#000000;stroke-width:15;stroke-linecap:round;stroke-linejoin:round;stroke-miterlimit:10;" x1="377.475" y1="121.398" x2="341.607" y2="142.106"/>
	
		<line style="fill:none;stroke:#000000;stroke-width:15;stroke-linecap:round;stroke-linejoin:round;stroke-miterlimit:10;" x1="377.475" y1="142.106" x2="341.607" y2="121.398"/>
	
		<line style="fill:none;stroke:#000000;stroke-width:15;stroke-linecap:round;stroke-linejoin:round;stroke-miterlimit:10;" x1="221.486" y1="111.044" x2="221.486" y2="152.46"/>
	
		<line style="fill:none;stroke:#000000;stroke-width:15;stroke-linecap:round;stroke-linejoin:round;stroke-miterlimit:10;" x1="203.552" y1="121.398" x2="239.42" y2="142.106"/>
	
		<line style="fill:none;stroke:#000000;stroke-width:15;stroke-linecap:round;stroke-linejoin:round;stroke-miterlimit:10;" x1="203.552" y1="142.106" x2="239.42" y2="121.398"/>
	
		<line style="fill:none;stroke:#000000;stroke-width:15;stroke-linecap:round;stroke-linejoin:round;stroke-miterlimit:10;" x1="290.514" y1="111.044" x2="290.514" y2="152.46"/>
	
		<line style="fill:none;stroke:#000000;stroke-width:15;stroke-linecap:round;stroke-linejoin:round;stroke-miterlimit:10;" x1="272.58" y1="121.398" x2="308.447" y2="142.106"/>
	
		<line style="fill:none;stroke:#000000;stroke-width:15;stroke-linecap:round;stroke-linejoin:round;stroke-miterlimit:10;" x1="272.58" y1="142.106" x2="308.447" y2="121.398"/>
	<path style="fill:none;stroke:#000000;stroke-width:15;stroke-linecap:round;stroke-linejoin:round;stroke-miterlimit:10;" d="&#10;&#9;&#9;M148.658,76.53h326.719c0.834,0,1.51,0.676,1.51,1.51v107.423c0,0.834-0.676,1.51-1.51,1.51H297.416L256,228.39l-41.416-41.416&#10;&#9;&#9;H36.623c-0.834,0-1.51-0.676-1.51-1.51V78.04c0-0.834,0.676-1.51,1.51-1.51h77.034"/>
	<path style="fill:none;stroke:#000000;stroke-width:15;stroke-linecap:round;stroke-linejoin:round;stroke-miterlimit:10;" d="&#10;&#9;&#9;M43.808,504.409c-0.03-0.011-0.06-0.023-0.089-0.036C43.749,504.386,43.778,504.398,43.808,504.409z"/>
	<path style="fill:none;stroke:#000000;stroke-width:15;stroke-linecap:round;stroke-linejoin:round;stroke-miterlimit:10;" d="&#10;&#9;&#9;M468.29,504.368c-0.165,0.074-0.346,0.12-0.537,0.13C467.943,504.488,468.124,504.443,468.29,504.368z"/>
	<path style="fill:none;stroke:#000000;stroke-width:15;stroke-linecap:round;stroke-linejoin:round;stroke-miterlimit:10;" d="&#10;&#9;&#9;M184.49,362.834L43.143,221.487c-0.209-0.209-0.316-0.482-0.319-0.757h0v282.269c0,0.415,0.168,0.79,0.44,1.061"/>
	
		<line style="fill:none;stroke:#000000;stroke-width:15;stroke-linecap:round;stroke-linejoin:round;stroke-miterlimit:10;" x1="384.787" y1="305.557" x2="327.51" y2="362.834"/>
	<path style="fill:none;stroke:#000000;stroke-width:15;stroke-linecap:round;stroke-linejoin:round;stroke-miterlimit:10;" d="&#10;&#9;&#9;M468.737,504.06c-0.089,0.089-0.19,0.167-0.299,0.232c0.442-0.261,0.739-0.742,0.739-1.293V220.731h0&#10;&#9;&#9;c-0.004,0.274-0.11,0.548-0.319,0.757l-58.222,58.222"/>
	<path style="fill:none;stroke:#000000;stroke-width:15;stroke-linecap:round;stroke-linejoin:round;stroke-miterlimit:10;" d="&#10;&#9;&#9;M43.524,504.269c-0.028-0.017-0.055-0.036-0.081-0.055C43.47,504.233,43.497,504.251,43.524,504.269z"/>
	<path style="fill:none;stroke:#000000;stroke-width:15;stroke-linecap:round;stroke-linejoin:round;stroke-miterlimit:10;" d="&#10;&#9;&#9;M43.147,221.49c-0.43-0.43-0.43-1.12,0-1.55l32.961-32.961"/>
	<path style="fill:none;stroke:#000000;stroke-width:15;stroke-linecap:round;stroke-linejoin:round;stroke-miterlimit:10;" d="&#10;&#9;&#9;M186.552,76.535l68.742-68.742c0.39-0.39,1.02-0.39,1.41,0l68.742,68.742"/>
	<path style="fill:none;stroke:#000000;stroke-width:15;stroke-linecap:round;stroke-linejoin:round;stroke-miterlimit:10;" d="&#10;&#9;&#9;M435.891,186.979l32.961,32.961c0.43,0.43,0.43,1.12,0,1.55"/>
</g>















</svg>
